<svg data-v-423bf9ae="" xmlns="http://www.w3.org/2000/svg" viewBox="0 0 642 90" class="iconLeft"><!----><!----><!----><g data-v-423bf9ae="" id="00fbc91e-0f70-4fb5-abfe-b732fe3c8219" fill="#815dff" transform="matrix(5.410279921920812,0,0,5.410279921920812,103.3453434546825,0.7168587696380513)"><path d="M9.60 13.66L9.60 4.36L7.04 4.36L7.04 8.94L2.13 4.22L1.23 4.22L1.23 13.52L3.79 13.52L3.79 9.02L8.70 13.66ZM21.68 13.52L21.68 4.22L20.51 4.22L16.87 8.05L13.23 4.22L12.06 4.22L12.06 13.52L14.62 13.52L14.62 8.74L16.49 10.79L17.25 10.79L19.13 8.74L19.13 13.52ZM31.20 6.62L31.20 4.36L23.26 4.36L23.26 6.62L25.95 6.62L25.95 13.48L28.51 13.48L28.51 6.62ZM39.65 4.16C37.86 4.16 36.19 5.21 36.19 7.14C36.19 8.24 36.59 9.34 38.13 9.83L39.43 10.24C39.92 10.39 40.24 10.58 40.24 10.86C40.24 11.24 39.80 11.38 39.17 11.38C38.14 11.38 37.11 10.91 36.23 10.25L36.23 12.73C37.04 13.30 38.17 13.73 39.27 13.73C41.38 13.73 43.07 12.47 43.07 10.72C43.07 9.84 42.56 8.87 41.23 8.37L40.25 8.00C39.48 7.71 38.88 7.55 38.88 7.10C38.88 6.67 39.39 6.51 39.99 6.51C41.03 6.51 41.73 6.90 42.51 7.36L42.51 4.88C41.86 4.44 40.71 4.16 39.65 4.16ZM47.78 6.34C45.84 6.34 43.96 7.89 43.96 10.04C43.96 12.18 45.84 13.73 47.78 13.73C49.72 13.73 51.61 12.18 51.61 10.04C51.61 7.89 49.72 6.34 47.78 6.34ZM47.78 8.60C48.29 8.60 49.08 8.85 49.08 10.04C49.08 11.22 48.29 11.47 47.78 11.47C47.28 11.47 46.48 11.22 46.48 10.04C46.48 8.85 47.28 8.60 47.78 8.60ZM55.40 13.52L55.40 3.68L53.05 3.68L53.05 13.52ZM63.92 6.55L61.56 6.55L61.55 10.10C61.55 11.06 61.28 11.47 60.58 11.47C59.88 11.47 59.61 11.06 59.61 10.10L59.60 6.55L57.24 6.55L57.24 10.73C57.24 12.62 58.64 13.73 60.58 13.73C62.52 13.73 63.92 12.62 63.92 10.73ZM68.88 6.55L68.88 4.50L67.62 4.50C67.21 5.96 66.24 6.73 65.35 6.96L65.35 8.39L66.53 8.39L66.53 11.21C66.53 12.80 67.65 13.73 68.95 13.73C69.85 13.73 70.49 13.37 70.79 12.97L70.79 11.14C70.45 11.35 70.12 11.44 69.69 11.44C69.18 11.44 68.88 11.02 68.88 10.35L68.88 8.39L70.71 8.39L70.71 6.55ZM74.18 5.48C74.96 5.48 75.66 4.84 75.66 4.06C75.66 3.27 74.96 2.64 74.18 2.64C73.39 2.64 72.72 3.27 72.72 4.06C72.72 4.84 73.39 5.48 74.18 5.48ZM75.43 6.55L71.94 6.55L71.94 8.46L73.08 8.46L73.08 13.52L75.43 13.52ZM80.55 6.34C78.61 6.34 76.73 7.89 76.73 10.04C76.73 12.18 78.61 13.73 80.55 13.73C82.50 13.73 84.38 12.18 84.38 10.04C84.38 7.89 82.50 6.34 80.55 6.34ZM80.55 8.60C81.06 8.60 81.85 8.85 81.85 10.04C81.85 11.22 81.06 11.47 80.55 11.47C80.05 11.47 79.26 11.22 79.26 10.04C79.26 8.85 80.05 8.60 80.55 8.60ZM90.14 6.34C89.21 6.34 88.61 6.85 88.17 7.45L88.17 6.55L85.82 6.55L85.82 13.52L88.17 13.52L88.17 9.31C88.42 8.94 88.76 8.64 89.26 8.64C89.74 8.64 90.19 8.89 90.19 9.58L90.21 13.52L92.56 13.52L92.56 9.21C92.56 7.33 91.56 6.34 90.14 6.34ZM96.84 6.34C95.18 6.34 93.93 7.25 93.93 8.68C93.93 9.65 94.38 10.32 95.40 10.64L96.10 10.86C96.65 11.03 96.95 11.13 96.95 11.39C96.95 11.72 96.70 11.83 96.18 11.83C95.53 11.83 94.61 11.53 93.95 11.12L93.95 12.95C94.58 13.38 95.51 13.73 96.55 13.73C98.04 13.73 99.41 12.77 99.41 11.40C99.41 10.40 98.82 9.76 97.59 9.45L97.17 9.34C96.58 9.19 96.43 9.11 96.43 8.85C96.43 8.48 96.82 8.31 97.26 8.31C97.95 8.31 98.56 8.64 99.04 8.93L99.04 7.08C98.56 6.63 97.74 6.34 96.84 6.34Z"></path></g><defs data-v-423bf9ae=""><linearGradient data-v-423bf9ae="" gradientTransform="rotate(25)" id="bd9c1d3b-cd47-4262-9b45-f01bb9303fa9" x1="0%" y1="0%" x2="100%" y2="0%"><stop data-v-423bf9ae="" offset="0%" style="stop-color: rgb(78, 26, 112); stop-opacity: 1;"></stop><stop data-v-423bf9ae="" offset="100%" style="stop-color: rgb(43, 76, 242); stop-opacity: 1;"></stop></linearGradient></defs><g data-v-423bf9ae="" id="3148767c-c355-47e4-a2fb-ba26438cc518" transform="matrix(2.8125,0,0,2.8125,0,0)" stroke="none" fill="#815dff"><path d="M4.029 14.362L14.362 4.028l.707.707L4.736 15.07zM17.135 27.47L27.47 17.135l.707.707-10.333 10.333zM4.029 17.841l.707-.707 10.333 10.334-.707.707zM17.135 4.735l.708-.707L28.176 14.36l-.707.707z"></path><g><path d="M16 1.414l1.683 1.683L16 4.779l-1.683-1.683L16 1.414M16 0l-3.097 3.097L16 6.194l3.097-3.097L16 0zM16 27.221l1.683 1.683L16 30.586l-1.683-1.683L16 27.221m0-1.415l-3.097 3.097L16 32l3.097-3.097L16 25.806zM3.097 14.317L4.779 16l-1.683 1.683L1.414 16l1.683-1.683m0-1.414L0 16l3.097 3.097L6.194 16l-3.097-3.097zM28.903 14.317L30.586 16l-1.683 1.683L27.221 16l1.682-1.683m0-1.414L25.806 16l3.097 3.097L32 16l-3.097-3.097z"></path></g></g><!----></svg>